<?xml version="1.0" encoding="UTF-8"?>
<svg width="449px" height="102px" viewBox="0 0 449 102" version="1.1" xmlns="http://www.w3.org/2000/svg" xmlns:xlink="http://www.w3.org/1999/xlink">
    <g id="Group" fill="#fff">
        <path d="M32.7,22.6 C24.4,21.5 16.7,23.9 10.8,28.7 L10.8,11.5 C10.8,5.7 6.1,0.9 0.2,0.9 L0.2,79.3 L10.8,79.3 L10.8,73 C15.7,77 21.9,79.3 28.7,79.3 C46.1,79.3 59.8,63.7 56.7,45.8 C54.7,33.5 45.1,24.3 32.7,22.6 Z M28.8,68.7 C18.9,68.7 10.9,60.7 10.9,50.8 C10.9,40.9 18.9,32.9 28.8,32.9 C38.7,32.9 46.7,40.9 46.7,50.8 C46.7,60.7 38.6,68.7 28.8,68.7 Z" id="Shape" fill-rule="nonzero"></path>
        <path d="M342.3,22.6 C334,21.5 326.4,24 320.6,28.7 L320.6,11.5 C320.6,5.7 315.9,0.9 310,0.9 L310,79.3 L320.6,79.3 L320.6,73 C325.5,77 331.7,79.3 338.5,79.3 C355.9,79.3 369.7,63.6 366.5,45.6 C364.3,33.4 354.6,24.2 342.3,22.6 Z M338.4,68.7 C328.5,68.7 320.5,60.7 320.5,50.8 C320.5,40.9 328.5,32.9 338.4,32.9 C348.3,32.9 356.3,40.9 356.3,50.8 C356.3,60.7 348.3,68.7 338.4,68.7 Z" id="Shape" fill-rule="nonzero"></path>
        <path d="M228.3,22.4 L228.3,28.7 C222.5,24 214.8,21.5 206.5,22.6 C194.2,24.2 184.5,33.4 182.4,45.7 C179.2,63.7 193,79.3 210.4,79.3 C217.2,79.3 223.4,76.9 228.3,73 L228.3,90.2 C228.3,96 233,100.8 238.9,100.8 L238.9,22.4 L228.3,22.4 Z M210.4,68.7 C200.5,68.7 192.5,60.7 192.5,50.8 C192.5,40.9 200.5,32.9 210.4,32.9 C220.3,32.9 228.3,40.9 228.3,50.8 C228.3,60.7 220.3,68.7 210.4,68.7 Z" id="Shape" fill-rule="nonzero"></path>
        <path d="M89.4,22.4 C73.7,22.4 60.9,35.1 60.9,50.9 C60.9,66.6 73.6,79.4 89.4,79.4 C105.1,79.4 117.9,66.7 117.9,50.9 C117.8,35.1 105.1,22.4 89.4,22.4 Z M89.4,68.7 C79.5,68.7 71.5,60.7 71.5,50.8 C71.5,40.9 79.5,32.9 89.4,32.9 C99.3,32.9 107.3,40.9 107.3,50.8 C107.3,60.7 99.2,68.7 89.4,68.7 Z" id="Shape" fill-rule="nonzero"></path>
        <path d="M149.8,22.4 C134.1,22.4 121.3,35.1 121.3,50.9 C121.3,66.6 134,79.4 149.8,79.4 C165.5,79.4 178.3,66.7 178.3,50.9 C178.2,35.1 165.5,22.4 149.8,22.4 Z M149.8,68.7 C139.9,68.7 131.9,60.7 131.9,50.8 C131.9,40.9 139.9,32.9 149.8,32.9 C159.7,32.9 167.7,40.9 167.7,50.8 C167.7,60.7 159.7,68.7 149.8,68.7 Z" id="Shape" fill-rule="nonzero"></path>
        <path d="M448.1,50.8 C448.1,35.1 435.4,22.3 419.6,22.3 C403.9,22.3 391.1,35 391.1,50.8 C391.1,66.5 403.8,79.3 419.6,79.3 C431.5,79.3 441.7,72 446,61.6 L434,61.6 C430.7,66 425.5,68.8 419.7,68.8 C411.6,68.8 404.8,63.5 402.6,56.2 L447.7,56.2 C447.9,54.4 448.1,52.6 448.1,50.8 Z M402.6,45.5 C404.9,38.2 411.7,32.9 419.7,32.9 C427.7,32.9 434.5,38.2 436.8,45.5 L402.6,45.5 Z" id="Shape" fill-rule="nonzero"></path>
        <path d="M292.6,22.4 L292.6,28.7 C287.8,24.8 281.6,22.4 274.9,22.4 C259.8,22.3 246.8,34.6 246.2,49.7 C245.5,66 258.5,79.3 274.6,79.3 C281.4,79.3 287.6,76.9 292.5,73 L292.5,79.3 L303.1,79.3 L303.1,22.4 L292.6,22.4 Z M274.7,68.7 C264.8,68.7 256.8,60.7 256.8,50.8 C256.8,40.9 264.8,32.9 274.7,32.9 C284.6,32.9 292.6,40.9 292.6,50.8 C292.6,60.7 284.5,68.7 274.7,68.7 Z" id="Shape" fill-rule="nonzero"></path>
        <path d="M373.8,0.9 L373.8,79.3 L384.4,79.3 L384.4,11.5 C384.3,5.7 379.6,0.9 373.8,0.9 Z" id="Path"></path>
    </g>
</svg>
