<?xml version="1.0" encoding="utf-8"?>
<!-- Generator: Adobe Illustrator 16.0.0, SVG Export Plug-In . SVG Version: 6.00 Build 0)  -->
<!DOCTYPE svg PUBLIC "-//W3C//DTD SVG 1.1//EN" "http://www.w3.org/Graphics/SVG/1.1/DTD/svg11.dtd">
<svg version="1.1" id="Layer_1" xmlns="http://www.w3.org/2000/svg" xmlns:xlink="http://www.w3.org/1999/xlink" x="0px" y="0px"
	 width="440px" height="100px" viewBox="0 0 440 100" enable-background="new 0 0 440 100" xml:space="preserve">
<g transform="translate(-280.000000, -109.000000)">
	<g transform="translate(280.000000, 109.000000)">
		<path id="Fill-1" fill="#FFFFFF" d="M90.132,45.234c-2.353-3.288-5.876-5.434-10.576-6.436c3.659-1.429,6.449-3.566,8.368-6.408
			c1.919-2.843,2.879-6.069,2.879-9.68c0-7.114-2.583-12.458-7.749-16.034c-5.166-3.575-12.36-5.364-21.58-5.364H50.768V13.38
			h10.707c4.522,0,7.92,0.857,10.199,2.574c2.277,1.715,3.417,4.38,3.417,7.989c0,3.29-1.13,5.792-3.39,7.508
			c-0.715,0.543-1.524,0.999-2.432,1.369h-22.9V4.477c0-3.726-3.026-4.051-6.771-4.051c-3.736,0-6.771,0.317-6.771,4.051V32.82H4.39
			c-3.747,0-4.063,3.026-4.063,6.751c0,3.723,0.317,6.746,4.063,6.746h28.435v29.257c0,3.723,3.035,4.049,6.771,4.049
			c3.745,0,6.771-0.326,6.771-4.049V46.317h26.814c0.772,0.428,1.445,0.949,2.016,1.564c1.865,2.016,2.799,4.931,2.799,8.748
			c0,3.529-1.095,6.195-3.284,7.999c-2.189,1.802-5.363,2.701-9.525,2.701H50.768v12.065h14.419c9.078,0,16.09-1.922,21.043-5.766
			c4.951-3.843,7.426-9.5,7.426-16.973C93.656,52.332,92.48,48.523,90.132,45.234"/>
		<path id="Fill-2" fill="#FFFFFF" d="M96.071,52.016c0-18.509,9.146-27.763,27.439-27.763c18.293,0,27.439,9.254,27.439,27.763
			c0,18.475-9.146,27.712-27.439,27.712C105.286,79.728,96.14,70.49,96.071,52.016L96.071,52.016z M123.51,69.105
			c8.972,0,13.457-5.766,13.457-17.299c0-11.254-4.485-16.88-13.457-16.88c-8.971,0-13.456,5.626-13.456,16.88
			C110.054,63.34,114.539,69.105,123.51,69.105L123.51,69.105z"/>
		<path id="Fill-3" fill="#FFFFFF" d="M151.299,52.016c0-18.509,9.147-27.763,27.44-27.763c18.293,0,27.439,9.254,27.439,27.763
			c0,18.475-9.146,27.712-27.439,27.712C160.516,79.728,151.371,70.49,151.299,52.016L151.299,52.016z M178.74,69.105
			c8.97,0,13.457-5.766,13.457-17.299c0-11.254-4.486-16.88-13.457-16.88c-8.971,0-13.456,5.626-13.456,16.88
			C165.284,63.34,169.769,69.105,178.74,69.105L178.74,69.105z"/>
		<path id="Fill-4" fill="#FFFFFF" d="M258.613,99.604h-13.984v-22.61c-3.8,1.752-8.092,2.629-12.876,2.629
			c-16.815,0-25.224-9.308-25.224-27.922c0-18.195,9.586-27.292,28.76-27.292c7.141,0,14.916,0.754,23.324,2.262V99.604
			L258.613,99.604z M244.629,36.925c-3.343-0.842-6.421-1.262-9.234-1.262c-10.025,0-15.04,5.311-15.04,15.933
			c0,10.974,4.345,16.458,13.035,16.458c4.361,0,8.108-0.946,11.239-2.839V36.925L244.629,36.925z"/>
		<path id="Fill-5" fill="#FFFFFF" d="M261.601,62.428c0-10.973,8.021-16.458,24.062-16.458c3.766,0,7.528,0.351,11.294,1.051
			v-4.154c0-4.943-3.573-7.414-10.713-7.414c-6.051,0-12.77,0.877-20.157,2.629V27.039c7.388-1.751,14.106-2.629,20.157-2.629
			c16.463,0,24.695,6.066,24.695,18.194v37.02h-8.125l-4.961-4.943c-4.82,3.297-10.133,4.943-15.938,4.943
			C268.373,79.623,261.601,73.891,261.601,62.428L261.601,62.428z M285.663,55.434c-6.719,0-10.078,2.28-10.078,6.838
			c0,4.907,2.814,7.361,8.443,7.361c4.642,0,8.951-1.438,12.929-4.312v-8.834C293.437,55.786,289.674,55.434,285.663,55.434
			L285.663,55.434z"/>
		<path id="Fill-6" fill="#FFFFFF" d="M316.568,4.428h13.982v24.189c4.186-2.804,8.848-4.208,13.984-4.208
			c15.76,0,23.641,8.834,23.641,26.503c0,19.141-9.023,28.711-27.071,28.711c-7.597,0-15.776-0.752-24.536-2.262V4.428
			L316.568,4.428z M330.551,66.845c3.202,1.017,6.914,1.524,11.135,1.524c8.443,0,12.666-5.941,12.666-17.824
			c0-9.711-3.643-14.566-10.925-14.566c-4.714,0-9.007,0.946-12.876,2.838V66.845L330.551,66.845z"/>
		<polygon id="Fill-7" fill="#FFFFFF" points="371.164,4.428 385.148,4.428 385.148,79.623 371.164,79.623 		"/>
		<path id="Fill-8" fill="#FFFFFF" d="M414.15,24.409c16.814,0,25.224,8.556,25.224,25.662c0,2.279-0.159,4.558-0.476,6.835h-36.779
			c0,7.783,5.732,11.674,17.203,11.674c5.594,0,11.188-0.526,16.78-1.577v11.042c-4.891,1.052-10.836,1.578-17.836,1.578
			c-20.089,0-30.132-9.412-30.132-28.238C388.135,33.401,396.807,24.409,414.15,24.409L414.15,24.409z M402.119,47.231h23.642v-0.42
			c0-7.641-3.872-11.463-11.61-11.463C406.764,35.348,402.754,39.309,402.119,47.231L402.119,47.231z"/>
	</g>
</g>
</svg>
