<svg height="72" viewBox="0 0 450 72" width="450" xmlns="http://www.w3.org/2000/svg"><g fill="none"><g fill="#fff"><path d="m174 19.7c-5.5-.7-10.6.9-14.5 4v-11.4c0-3.9-3.1-7-7-7v52h7v-4.2c3.2 2.6 7.4 4.2 11.9 4.2 11.5 0 20.6-10.3 18.6-22.2-1.4-8.2-7.8-14.3-16-15.4zm-2.6 30.5c-6.6 0-11.9-5.3-11.9-11.9s5.3-11.9 11.9-11.9c6.5 0 11.9 5.3 11.9 11.9-.1 6.6-5.4 11.9-11.9 11.9z"/><path d="m379.2 19.7c-5.5-.7-10.6.9-14.4 4v-11.4c0-3.9-3.1-7-7-7v52h7v-4.2c3.2 2.6 7.4 4.2 11.9 4.2 11.6 0 20.7-10.4 18.6-22.3-1.5-8.2-7.9-14.2-16.1-15.3zm-2.5 30.5c-6.5 0-11.9-5.3-11.9-11.9s5.3-11.9 11.9-11.9 11.9 5.3 11.9 11.9c-.1 6.6-5.4 11.9-11.9 11.9z"/><path d="m303.6 19.5v4.2c-3.9-3.1-8.9-4.8-14.4-4-8.2 1.1-14.6 7.2-16 15.3-2.1 11.9 7 22.3 18.6 22.3 4.5 0 8.6-1.6 11.9-4.2v11.4c0 3.9 3.1 7 7 7v-52zm-11.8 30.7c-6.5 0-11.9-5.3-11.9-11.9 0-6.5 5.3-11.9 11.9-11.9s11.9 5.3 11.9 11.9c-.1 6.6-5.4 11.9-11.9 11.9z"/><path d="m211.6 19.5c-10.4 0-18.9 8.5-18.9 18.9s8.4 18.9 18.9 18.9c10.4 0 18.9-8.5 18.9-18.9-.1-10.4-8.5-18.9-18.9-18.9zm0 30.7c-6.6 0-11.9-5.3-11.9-11.9s5.3-11.9 11.9-11.9c6.5 0 11.9 5.3 11.9 11.9-.1 6.6-5.4 11.9-11.9 11.9z"/><path d="m251.6 19.5c-10.4 0-18.9 8.5-18.9 18.9s8.5 18.9 18.9 18.9 18.9-8.5 18.9-18.9-8.5-18.9-18.9-18.9zm0 30.7c-6.6 0-11.9-5.3-11.9-11.9s5.3-11.9 11.9-11.9 11.9 5.3 11.9 11.9-5.3 11.9-11.9 11.9z"/><path d="m449.3 38.4c0-10.4-8.4-18.9-18.9-18.9-10.4 0-18.9 8.5-18.9 18.9s8.4 18.9 18.9 18.9c7.9 0 14.7-4.9 17.5-11.8h-8c-2.2 2.9-5.6 4.7-9.5 4.7-5.3 0-9.9-3.5-11.3-8.4h29.9c.2-1.1.3-2.2.3-3.4zm-30.1-3.5c1.5-4.8 6-8.3 11.3-8.3s9.8 3.5 11.3 8.3z"/><path d="m346.2 19.5v4.2c-3.2-2.6-7.3-4.2-11.7-4.2-10-.1-18.6 8.1-19 18.1-.4 10.8 8.2 19.7 18.9 19.7 4.5 0 8.6-1.6 11.9-4.2v4.2h7v-37.7h-7.1zm-11.8 30.7c-6.6 0-11.9-5.3-11.9-11.9s5.3-11.9 11.9-11.9 11.9 5.3 11.9 11.9c-.1 6.6-5.4 11.9-11.9 11.9z"/><path d="m400.1 5.3v52h7v-45c0-3.9-3.2-7-7-7z"/><path d="m136.4 58.2c-2.8-17.1-42.1-46.4-56.6-54.7-3.2-1.8-7.3-2.8-11.5-2.8s-8.1 1-11.3 2.8c-10.1 5.9-43.1 28.9-53.6 46.7-1.6 2.7-2.7 5.4-3.1 7.8-.5 3.2.2 6 2.1 8.2 1.6 1.8 3.8 2.7 6.5 2.7 7.4 0 18.2-7.2 29.6-14.8 11.2-7.5 22.7-15.2 29.9-15.2 1.5 0 3.2.4 5.1 1 .1 0 .1 0 .2.1 2.2.8 4.7 1.9 7.3 3.4.3.2.5.3.8.4 1.1.6 2.1 1.2 3.2 1.9 4 2.5 8.2 5.3 12.4 8.1 5.8 3.9 11.4 7.7 16.5 10.5s9.8 4.7 13.7 4.7c2.9 0 5.2-1 6.9-2.9 1.8-2.1 2.5-4.7 1.9-7.9z"/></g><path d="m73.5 40c-1.8-.6-3.6-1-5.1-1-7.2 0-18.7 7.7-29.9 15.2-11.4 7.6-22.1 14.8-29.6 14.8-2.7 0-4.9-.9-6.5-2.7-1.9-2.2-2.7-5-2.1-8.2.4-2.4 1.5-5 3.1-7.8 25.1-23.7 54.4-16.9 70.1-10.3z" fill="#1d1d1b" opacity=".4"/></g></svg>